<?xml version="1.0" encoding="UTF-8"?>
<svg width="460px" height="460px" viewBox="0 0 460 460" version="1.1" xmlns="http://www.w3.org/2000/svg" xmlns:xlink="http://www.w3.org/1999/xlink">
    <!-- Generator: Sketch 62 (91390) - https://sketch.com -->
    <title>vector_thunderstorm</title>
    <desc>Created with Sketch.</desc>
    <g id="Page-1" stroke="none" stroke-width="1" fill="none" fill-rule="evenodd">
        <g id="Group-6" transform="translate(39.000000, 95.538080)" fill="#010202" fill-rule="nonzero">
            <path d="M294.233296,217.471017 L284.206367,217.467313 C278.974563,217.465465 274.734531,213.222657 274.736387,207.989924 C274.738235,202.759048 278.979651,198.519944 284.210072,198.519944 C284.211455,198.519944 284.212383,198.519944 284.213776,198.519944 L294.191214,198.523648 C320.035206,198.244251 341.052632,177.024676 341.052632,151.19964 C341.052632,125.084558 319.796053,103.838154 293.668484,103.838154 C292.551812,103.838154 291.358345,103.910779 290.337897,103.981557 C287.824225,104.15826 285.341542,103.321449 283.444029,101.661243 C281.546517,100.001037 280.388672,97.6529653 280.227231,95.1369821 C277.486892,52.4138116 241.765835,18.9473779 198.905277,18.9473779 C170.163654,18.9473779 144.092984,33.6412989 129.165916,58.2529926 C127.655119,60.7444579 125.081318,62.4018884 122.187865,62.7474411 C119.295805,63.0883611 116.403272,62.0873337 114.348486,60.0209811 C109.402096,55.0472968 102.815848,52.3083505 95.8031053,52.3083505 C81.3797905,52.3083505 69.6454674,64.0426737 69.6454674,78.4664526 C69.6454674,82.5815842 70.5794211,86.5255642 72.4214274,90.1892084 C73.8679263,93.0664705 73.7536642,96.4817147 72.1179758,99.2562821 C70.4822874,102.030385 67.5490547,103.783576 64.3308632,103.910788 C38.8823495,104.915511 18.9473684,125.667407 18.9473684,151.153844 C18.9473684,177.226371 40.0762705,198.437608 66.0474947,198.437608 L75.7894737,198.437608 C81.0217421,198.437608 85.2631579,202.679488 85.2631579,207.911293 C85.2631579,213.143097 81.0217421,217.384977 75.7894737,217.384977 L66.0474947,217.384977 C29.6288526,217.384977 0,187.674243 0,151.153844 C0,119.628862 21.7765232,93.2755547 51.4220305,86.5736621 C50.9404832,83.9221389 50.6980895,81.2160379 50.6980895,78.4664432 C50.6980895,53.5952463 70.9318989,33.3609726 95.8030958,33.3609726 C104.064812,33.3609726 111.981913,35.5647126 118.889649,39.6960347 C137.820363,14.6620137 167.029191,0 198.905277,0 C248.722607,0 290.714438,36.6901768 298.168948,85.0415779 C332.654912,87.3609726 360,116.147463 360,151.19964 C360,187.385599 330.540452,217.114835 294.329975,217.471017 C294.298058,217.471017 294.265677,217.471017 294.233296,217.471017 Z" id="Path"></path>
            <path d="M90.9788211,306.518097 C88.5562768,306.518097 86.1341968,305.594782 84.2847916,303.748153 C80.5822863,300.051199 80.5781179,294.052424 84.2750811,290.349919 L124.972143,249.595503 L100.452505,249.595503 C96.5760632,249.595503 93.0909695,247.234481 91.6537263,243.633742 C90.2169474,240.033932 91.1180558,235.921576 93.9287084,233.252469 L153.612919,176.572269 C157.407016,172.969683 163.403005,173.122333 167.006065,176.918277 C170.609116,180.711455 170.454619,186.708363 166.660513,190.310959 L124.185752,230.648135 L147.820926,230.648135 C151.651573,230.648135 155.105204,232.954569 156.572053,236.493322 C158.039365,240.032075 157.231232,244.105579 154.524666,246.816303 L97.6825611,303.738897 C95.8322368,305.591087 93.4055337,306.518097 90.9788211,306.518097 Z" id="Path"></path>
            <path d="M187.539167,273.222351 C185.112919,273.222351 182.687144,272.29626 180.836811,270.444079 C177.138928,266.742493 177.142168,260.744656 180.843745,257.046774 L221.493628,216.437608 L197.012852,216.437608 C193.140578,216.437608 189.65826,214.081219 188.218705,210.486951 C186.778686,206.892682 187.671013,202.783102 190.472409,200.110311 L250.15662,143.153488 C253.941935,139.541646 259.938388,139.680881 263.550685,143.46666 C267.162992,147.251975 267.022828,153.248428 263.237514,156.860725 L220.662369,197.49024 L244.381273,197.49024 C248.213766,197.49024 251.668791,199.799451 253.13472,203.340979 C254.60064,206.881579 253.788347,210.957859 251.076695,213.665817 L194.234589,270.450559 C192.385175,272.298117 189.962166,273.222351 187.539167,273.222351 Z" id="Path"></path>
            <path d="M139.223378,318.696035 C136.797129,318.696035 134.371355,317.769944 132.521021,315.917763 C128.823139,312.216177 128.826379,306.217412 132.527956,302.520458 L156.251946,278.820521 C159.953533,275.122639 165.951834,275.125415 169.649716,278.827001 C173.347598,282.528587 173.344358,288.527353 169.642781,292.224306 L145.918791,315.924243 C144.069385,317.771801 141.645922,318.696035 139.223378,318.696035 Z" id="Path"></path>
            <path d="M53.0128516,287.432877 C50.5866032,287.432877 48.1608284,286.506786 46.3104947,284.654605 C42.6126126,280.953019 42.6158526,274.955182 46.3174295,271.2573 L61.2782621,256.311265 C64.9798484,252.614312 70.9781495,252.617087 74.6760316,256.317745 C78.3739137,260.019332 78.3706737,266.017168 74.6690968,269.715051 L59.7082642,284.661085 C57.8588589,286.508643 55.4358505,287.432877 53.0128516,287.432877 Z" id="Path"></path>
            <path d="M222.591799,300.696035 C220.165551,300.696035 217.739776,299.769944 215.889442,297.917763 C212.19156,294.216177 212.1948,288.21834 215.896377,284.520458 L265.152136,235.314663 C268.853722,231.616781 274.852023,231.619557 278.549905,235.321143 C282.247787,239.022729 282.244547,245.020566 278.542971,248.718448 L229.287212,297.924243 C227.437806,299.771801 225.014343,300.696035 222.591799,300.696035 Z" id="Path"></path>
        </g>
    </g>
</svg>