<?xml version="1.0" encoding="UTF-8"?>
<svg width="465px" height="460px" viewBox="0 0 465 460" version="1.1" xmlns="http://www.w3.org/2000/svg" xmlns:xlink="http://www.w3.org/1999/xlink">
    <!-- Generator: Sketch 62 (91390) - https://sketch.com -->
    <title>vector_broken_clouds</title>
    <desc>Created with Sketch.</desc>
    <g id="Page-1" stroke="none" stroke-width="1" fill="none" fill-rule="evenodd">
        <g id="Group-10" transform="translate(52.000000, 124.000000)" fill="#010202" fill-rule="nonzero">
            <path d="M51.4415223,211.507225 C23.0546517,211.320236 0,188.147777 0,159.852054 C0,135.26331 16.9611487,114.709759 40.0503841,109.48346 C39.6749662,107.417943 39.4865379,105.310278 39.4865379,103.168023 C39.4865379,83.7972901 55.2457724,68.0380555 74.6168664,68.0380555 C81.0508419,68.0380555 87.2178435,69.7551759 92.598341,72.9728831 C107.341574,53.4764113 130.090698,42.0582524 154.918673,42.0582524 C193.72175,42.0582524 226.429161,70.6418377 232.23227,108.306774 C259.089372,110.116127 280.38835,132.543882 280.38835,159.852062 C280.38835,188.054828 257.44395,211.225487 229.241183,211.50327 L51.4415223,211.507225 Z M74.6168664,82.7953445 C63.3831736,82.7953445 54.2438194,91.9343371 54.2438194,103.16803 C54.2438194,106.372765 54.9712353,109.444922 56.405894,112.298375 C57.5325091,114.539349 57.4435153,117.199334 56.1695487,119.360324 C54.8955821,121.520953 52.6110148,122.886437 50.1045052,122.985517 C30.2837717,123.768051 14.7572816,139.961792 14.7572816,159.852062 C14.7572816,180.064063 31.2356458,196.616641 51.490155,196.749951 L229.1684,196.74635 C249.241329,196.548197 265.631061,179.997411 265.631061,159.852069 C265.631061,139.50208 249.075235,122.946255 228.725608,122.946255 C227.967209,122.946255 227.142875,122.979038 226.131558,123.049298 C224.173769,123.185847 222.240115,122.534807 220.762225,121.242106 C219.284335,119.949044 218.382539,118.120233 218.2568,116.160643 C216.122108,82.8828994 188.300891,56.8155487 154.918666,56.8155487 C132.531988,56.8155487 112.226669,68.2589278 100.601709,87.4264598 C99.4250151,89.3669538 97.4203934,90.6578544 95.1668089,90.9269903 C92.9143091,91.1928796 90.6614404,90.4128614 89.0610575,88.8034691 C85.2078058,84.9289522 80.0780715,82.7953445 74.6168664,82.7953445 Z" id="Shape"></path>
            <path d="M254.530323,3.14570376e-14 C293.3334,3.14570376e-14 326.040812,28.5835852 331.843921,66.2485212 C358.701022,68.0578746 380,90.4856295 380,117.793809 C380,145.996576 357.0556,169.167234 328.852834,169.445018 L270.844023,169.447438 C274.711749,165.206591 277.749598,160.198877 279.694852,154.689609 L328.780051,154.688098 C348.852979,154.489944 365.242711,137.939159 365.242711,117.793817 C365.242711,97.443828 348.686886,80.8880027 328.337259,80.8880027 C327.57886,80.8880027 326.754525,80.920786 325.743209,80.9910454 C323.785419,81.1275946 321.851765,80.476555 320.373875,79.183854 C318.895985,77.8907915 317.99419,76.0619806 317.86845,74.1023907 C315.733758,40.824647 287.912541,14.7572963 254.530316,14.7572963 C232.143638,14.7572963 211.83832,26.2006753 200.21336,45.3682074 C200.073246,45.5992699 199.921393,45.8211221 199.758779,46.0331356 C194.108964,43.9584924 188.104564,42.6456206 181.874734,42.2145605 C179.477647,41.2447917 176.892519,40.737092 174.228517,40.737092 C170.602356,40.737092 167.194415,41.6893343 164.241645,43.3568938 C155.407758,45.1345336 147.133736,48.6988612 139.862261,53.8001365 C143.234757,37.9264554 157.36261,25.9798031 174.228517,25.9798031 C180.662492,25.9798031 186.829494,27.6969235 192.209991,30.9146307 C206.953224,11.4181588 229.702348,3.14570376e-14 254.530323,3.14570376e-14 Z" id="Combined-Shape"></path>
        </g>
    </g>
</svg>