<?xml version="1.0" encoding="UTF-8"?>
<svg width="460px" height="460px" viewBox="0 0 460 460" version="1.1" xmlns="http://www.w3.org/2000/svg" xmlns:xlink="http://www.w3.org/1999/xlink">
    <!-- Generator: Sketch 62 (91390) - https://sketch.com -->
    <title>Shape</title>
    <desc>Created with Sketch.</desc>
    <g id="Page-2" stroke="none" stroke-width="1" fill="none" fill-rule="evenodd">
        <path d="M97.7168,334.19238 C59.24512,333.93896 28,302.53418 28,264.18603 C28,230.86181 50.98682,203.00634 82.27881,195.92333 C81.77002,193.12401 81.51465,190.26757 81.51465,187.36425 C81.51465,161.11181 102.87256,139.7539 129.12549,139.7539 C137.84522,139.7539 146.20313,142.08105 153.49512,146.44189 C173.47608,120.01904 204.30713,104.54443 237.95557,104.54443 C290.54395,104.54443 334.8711,143.28271 342.73584,194.32861 C379.13428,196.78076 408,227.17627 408,264.18604 C408,302.40821 376.9043,333.81055 338.68213,334.18702 L97.7168,334.19238 Z M129.12549,159.75391 C113.90088,159.75391 101.51465,172.13965 101.51465,187.36426 C101.51465,191.70752 102.50049,195.8711 104.44483,199.73828 C105.97169,202.77539 105.85108,206.38037 104.12452,209.30908 C102.39796,212.2373 99.30177,214.08789 95.90479,214.22217 C69.04248,215.28271 48,237.22949 48,264.18604 C48,291.57862 70.33252,314.01172 97.78271,314.19239 L338.58349,314.18751 C365.78759,313.91896 388,291.48829 388,264.18605 C388,236.60646 365.56249,214.16896 337.98339,214.16896 C336.95556,214.16896 335.83837,214.21339 334.46777,214.30861 C331.81445,214.49367 329.19384,213.61134 327.19091,211.85939 C325.18798,210.10695 323.96581,207.62843 323.7954,204.97267 C320.90233,159.87257 283.19726,124.54445 237.95556,124.54445 C207.61572,124.54445 180.09667,140.05324 164.34179,166.03029 C162.74706,168.66017 160.03027,170.40968 156.97607,170.77443 C153.92334,171.13478 150.87011,170.07765 148.70117,167.8965 C143.479,162.64551 136.52686,159.75391 129.12549,159.75391 Z" id="Shape" fill="#010202" fill-rule="nonzero"></path>
    </g>
</svg>