<?xml version="1.0" encoding="UTF-8"?>
<svg width="460px" height="460px" viewBox="0 0 460 460" version="1.1" xmlns="http://www.w3.org/2000/svg" xmlns:xlink="http://www.w3.org/1999/xlink">
    <!-- Generator: Sketch 62 (91390) - https://sketch.com -->
    <title>vector_few_clouds</title>
    <desc>Created with Sketch.</desc>
    <g id="Page-1" stroke="none" stroke-width="1" fill="none" fill-rule="evenodd">
        <g id="Group-3" transform="translate(50.000000, 66.000000)" fill="#010202" fill-rule="nonzero">
            <path d="M255.559187,211.304731 C253.283204,211.304731 251.026325,210.316531 249.479452,208.411599 C246.754839,205.05647 247.266141,200.127717 250.621263,197.403104 C265.347908,185.444249 273.793821,167.718616 273.793821,148.772074 C273.793821,114.249404 245.707795,86.1633783 211.185125,86.1633783 C179.25217,86.1633783 152.504374,110.055107 148.966591,141.737384 C148.487017,146.032943 144.617533,149.124397 140.320448,148.647115 C136.025272,148.167157 132.931518,144.296147 133.411484,140.000588 C137.834679,100.385225 171.269797,70.5112043 211.185133,70.5112043 C254.338662,70.5112043 289.446003,105.618921 289.446003,148.772074 C289.446003,172.454776 278.891483,194.608949 260.487955,209.55341 C259.037366,210.731533 257.292548,211.304731 255.559187,211.304731 Z" id="Path"></path>
            <path d="M211.108696,57.9130435 C206.78677,57.9130435 203.282609,54.4092652 203.282609,50.0869565 L203.282609,7.82608696 C203.282609,3.50377826 206.78677,0 211.108696,0 C215.430621,0 218.934783,3.50377826 218.934783,7.82608696 L218.934783,50.0869565 C218.934783,54.4092652 215.430621,57.9130435 211.108696,57.9130435 Z" id="Path"></path>
            <path d="M112.5,156.521739 L70.2391304,156.521739 C65.9168217,156.521739 62.4130435,153.017961 62.4130435,148.695652 C62.4130435,144.373343 65.9168217,140.869565 70.2391304,140.869565 L112.5,140.869565 C116.822309,140.869565 120.326087,144.373343 120.326087,148.695652 C120.326087,153.017961 116.822309,156.521739 112.5,156.521739 Z" id="Path"></path>
            <path d="M351.978261,156.521739 L309.717391,156.521739 C305.395466,156.521739 301.891304,153.017961 301.891304,148.695652 C301.891304,144.373343 305.395466,140.869565 309.717391,140.869565 L351.978261,140.869565 C356.300186,140.869565 359.804348,144.373343 359.804348,148.695652 C359.804348,153.017961 356.300186,156.521739 351.978261,156.521739 Z" id="Path"></path>
            <path d="M280.402427,87.2280078 C278.399285,87.2280078 276.39691,86.464127 274.868374,84.9359739 C271.812076,81.8796757 271.812076,76.9241739 274.868374,73.8678678 L305.184522,43.55172 C308.241587,40.4954217 313.195563,40.4954217 316.252628,43.55172 C319.308926,46.6080183 319.308926,51.56352 316.252628,54.6198261 L285.93648,84.9359739 C284.407951,86.4641191 282.405569,87.2280078 280.402427,87.2280078 Z" id="Path"></path>
            <path d="M141.814964,87.2280078 C139.812206,87.2280078 137.809064,86.464127 136.280911,84.9359739 L105.964763,54.6198261 C102.908841,51.5635278 102.908841,46.6080261 105.964763,43.55172 C109.021062,40.4954217 113.976563,40.4954217 117.03287,43.55172 L147.349017,73.8678678 C150.40494,76.9241661 150.40494,81.8796678 147.349017,84.9359739 C145.820864,86.4641191 143.817723,87.2280078 141.814964,87.2280078 Z" id="Path"></path>
            <path d="M310.718583,256.131626 C308.715441,256.131626 306.713066,255.367745 305.18453,253.839592 L274.868382,223.523444 C271.812083,220.467146 271.812083,215.511644 274.868382,212.455338 C277.925447,209.39904 282.879423,209.39904 285.936488,212.455338 L316.252636,242.771486 C319.308934,245.827784 319.308934,250.783286 316.252636,253.839592 C314.724099,255.367737 312.721724,256.131626 310.718583,256.131626 Z" id="Path"></path>
            <path d="M54.5609739,328.695652 C24.4527026,328.497323 0,303.91967 0,273.908074 C0,247.82825 17.9896852,226.028317 42.4790687,220.485091 C42.0808852,218.294319 41.8810304,216.058844 41.8810304,213.786681 C41.8810304,193.241293 58.5959165,176.526407 79.1416878,176.526407 C85.9658243,176.526407 92.5067974,178.347655 98.2135722,181.760486 C113.850845,161.081734 137.979493,148.97117 164.313055,148.97117 C205.469178,148.97117 240.159991,179.288084 246.315389,219.23705 C274.801124,221.156123 297.391304,244.943914 297.391304,273.908074 C297.391304,303.821077 273.055539,328.396821 243.142153,328.69145 L54.5609739,328.695652 Z M79.1416878,192.178581 C67.2267757,192.178581 57.5332043,201.871769 57.5332043,213.786681 C57.5332043,217.185754 58.3047313,220.444208 59.8263887,223.470697 C61.0213226,225.847565 60.9269322,228.668854 59.5757113,230.960888 C58.2244904,233.252538 55.8013852,234.700826 53.1428791,234.805915 C32.1202096,235.63591 15.6521739,252.811643 15.6521739,273.908074 C15.6521739,295.345745 33.1297983,312.902084 54.6125557,313.043478 L243.064957,313.039659 C264.355122,312.82949 281.739123,295.275052 281.739123,273.908082 C281.739123,252.324055 264.17934,234.764272 242.595697,234.764272 C241.791691,234.764272 240.917369,234.799043 239.845101,234.873563 C237.773943,235.015333 235.717302,234.328641 234.149791,232.956783 C232.582281,231.585308 231.625417,229.64598 231.492436,227.567176 C229.227918,192.271445 199.719595,164.623351 164.313047,164.623351 C140.568824,164.623351 119.032177,176.760665 106.70227,197.09053 C105.454221,199.148697 103.328037,200.517879 100.937794,200.803336 C98.5479339,201.085349 96.1592165,200.25803 94.4617852,198.551043 C90.3748696,194.441572 84.9340643,192.178581 79.1416878,192.178581 Z" id="Shape"></path>
        </g>
    </g>
</svg>