<?xml version="1.0" encoding="UTF-8"?>
<svg width="460px" height="460px" viewBox="0 0 460 460" version="1.1" xmlns="http://www.w3.org/2000/svg" xmlns:xlink="http://www.w3.org/1999/xlink">
    <!-- Generator: Sketch 62 (91390) - https://sketch.com -->
    <title>vector_mist</title>
    <desc>Created with Sketch.</desc>
    <g id="Page-1" stroke="none" stroke-width="1" fill="none" fill-rule="evenodd">
        <g id="Group-9" transform="translate(49.833979, 136.000000)" fill="#010202" fill-rule="nonzero">
            <path d="M240.289752,194.893617 C240.287806,194.893617 240.2865,194.893617 240.284541,194.893617 L107.790143,194.873251 C100.430213,194.871591 94.4654738,191.070264 94.4680851,186.369472 C94.4706848,181.67034 100.437369,177.87234 107.795354,177.87234 C107.7973,177.87234 107.798606,177.87234 107.800565,177.87234 L240.294963,177.899353 C247.654894,177.901013 253.619633,181.699013 253.617021,186.399813 C253.614422,191.098945 247.647737,194.893617 240.289752,194.893617 Z" id="Path"></path>
            <path d="M282.088402,159.148936 C282.086936,159.148936 282.085484,159.148936 282.084017,159.148936 L88.189801,159.129589 C79.9231681,159.128012 73.2264009,155.516752 73.2264009,151.051787 C73.2264009,146.587614 79.9297539,142.978723 88.1941866,142.978723 C88.1956534,142.978723 88.1971053,142.978723 88.1985721,142.978723 L282.092788,143.004386 C290.359421,143.005962 297.056188,146.61406 297.056188,151.079026 C297.056188,155.543207 290.352835,159.148936 282.088402,159.148936 Z" id="Path"></path>
            <path d="M216.841764,49.3617106 C216.835265,49.3617106 216.830072,49.3617106 216.823547,49.3617106 L66.6839162,49.3433813 C51.9763312,49.3403864 40.0607174,45.9184485 40.0698205,41.6877362 C40.0789339,37.4592604 52.0023509,34.0425617 66.7021327,34.0425617 C66.708631,34.0425617 66.7138243,34.0425617 66.7203492,34.0425617 L216.85998,34.0668732 C231.567565,34.0698681 243.483179,37.4888111 243.474076,41.7195311 C243.464962,45.9479991 231.541545,49.3617106 216.841764,49.3617106 Z" id="Path"></path>
            <path d="M206.69908,15.3191489 C206.694865,15.3191489 206.691497,15.3191489 206.687266,15.3191489 L109.316375,15.3008196 C99.7779834,15.2978247 92.0502841,11.8758868 92.0561878,7.64517447 C92.0620982,3.41669872 99.7948582,0 109.328189,0 C109.332404,0 109.335772,0 109.340003,0 L206.710894,0.0243114894 C216.249286,0.027306383 223.976985,3.44624936 223.971081,7.67696936 C223.965171,11.9054374 216.232411,15.3191489 206.69908,15.3191489 Z" id="Path"></path>
            <path d="M205.086088,122.553191 C205.083351,122.553191 205.081514,122.553191 205.078759,122.553191 L18.7363707,122.533844 C8.3852383,122.532267 -0.00367255868,118.921006 0,114.455254 C0.00365622735,109.991079 8.39530366,106.382979 18.7436995,106.382979 C18.7464361,106.382979 18.7482729,106.382979 18.7510283,106.382979 L205.093417,106.408641 C215.444549,106.410217 223.83346,110.018317 223.829787,114.484077 C223.826131,118.948253 215.434484,122.553191 205.086088,122.553191 Z" id="Path"></path>
            <path d="M344.606683,86.8085106 C344.605216,86.8085106 344.603764,86.8085106 344.602297,86.8085106 L150.708081,86.7881447 C142.441448,86.7864851 135.744681,82.9851574 135.744681,78.2851915 C135.744681,73.5860596 142.448034,69.7872255 150.712467,69.7872255 C150.713934,69.7872255 150.715386,69.7872255 150.716852,69.7872255 L344.611068,69.8142383 C352.877701,69.8158979 359.574468,73.6138979 359.574468,78.3138638 C359.574468,83.0130043 352.871115,86.8085106 344.606683,86.8085106 Z" id="Path"></path>
        </g>
    </g>
</svg>