<svg width="24" height="24" viewBox="0 0 24 24" fill="none" xmlns="http://www.w3.org/2000/svg">
<path d="M18.2261 8.96925L11.9998 0L5.7742 8.96925C3.24881 12.9273 2.3355 17.9824 5.7742 21.4212C7.49315 23.1401 9.74611 24 11.9998 24C14.2534 24 16.5064 23.1401 18.2261 21.4211C21.6641 17.9824 20.7515 12.9272 18.2261 8.96925ZM11.1253 20.7473C11.0147 21.1282 10.6155 21.3472 10.2346 21.2366C9.23048 20.9444 8.30765 20.4009 7.55105 19.6436C6.99586 19.0884 6.60769 18.4636 6.36745 17.8177C6.12576 17.1709 6.02981 16.5066 6.02981 15.8599C6.03056 14.863 6.25612 13.9065 6.55054 13.062C6.68165 12.687 7.09106 12.49 7.46536 12.6211C7.84036 12.7515 8.03737 13.1616 7.90626 13.5359C7.647 14.2734 7.46536 15.0835 7.46606 15.8599C7.46606 16.3652 7.54148 16.8545 7.7129 17.316C7.88648 17.7774 8.15456 18.2146 8.56762 18.6285C9.15501 19.2166 9.86255 19.6319 10.636 19.8575C11.0168 19.968 11.2351 20.3664 11.1253 20.7473Z" fill="white"/>
</svg>
