<?xml version="1.0" encoding="UTF-8"?>
<svg width="460px" height="460px" viewBox="0 0 460 460" version="1.1" xmlns="http://www.w3.org/2000/svg" xmlns:xlink="http://www.w3.org/1999/xlink">
    <!-- Generator: Sketch 62 (91390) - https://sketch.com -->
    <title>vector_clear_sky</title>
    <desc>Created with Sketch.</desc>
    <g id="Page-1" stroke="none" stroke-width="1" fill="none" fill-rule="evenodd">
        <g id="Group-2" transform="translate(40.000000, 40.000000)" fill="#010202" fill-rule="nonzero">
            <path d="M190.09766,290.09766 C134.95752,290.09766 90.09766,245.2378 90.09766,190.09766 C90.09766,134.95752 134.95752,90.09766 190.09766,90.09766 C245.2378,90.09766 290.09766,134.95752 290.09766,190.09766 C290.09766,245.2378 245.23779,290.09766 190.09766,290.09766 Z M190.09766,110.09766 C145.98536,110.09766 110.09766,145.98536 110.09766,190.09766 C110.09766,234.20996 145.98536,270.09766 190.09766,270.09766 C234.20996,270.09766 270.09766,234.20996 270.09766,190.09766 C270.09766,145.98536 234.20996,110.09766 190.09766,110.09766 Z" id="Shape"></path>
            <path d="M190,74 C184.47705,74 180,69.52295 180,64 L180,10 C180,4.47705 184.47705,0 190,0 C195.52295,0 200,4.47705 200,10 L200,64 C200,69.52295 195.52295,74 190,74 Z" id="Path"></path>
            <path d="M190,380 C184.47705,380 180,375.52295 180,370 L180,316 C180,310.47705 184.47705,306 190,306 C195.52295,306 200,310.47705 200,316 L200,370 C200,375.52295 195.52295,380 190,380 Z" id="Path"></path>
            <path d="M64,200 L10,200 C4.47705,200 0,195.52295 0,190 C0,184.47705 4.47705,180 10,180 L64,180 C69.52295,180 74,184.47705 74,190 C74,195.52295 69.52295,200 64,200 Z" id="Path"></path>
            <path d="M370,200 L316,200 C310.47705,200 306,195.52295 306,190 C306,184.47705 310.47705,180 316,180 L370,180 C375.52295,180 380,184.47705 380,190 C380,195.52295 375.52295,200 370,200 Z" id="Path"></path>
            <path d="M278.54199,111.45801 C275.98291,111.45801 273.42334,110.48194 271.4707,108.5293 C267.56591,104.62403 267.56591,98.292 271.4707,94.38672 L310.208,55.64942 C314.11327,51.74415 320.4453,51.74415 324.35058,55.64942 C328.25537,59.55469 328.25537,65.88672 324.35058,69.792 L285.61328,108.5293 C283.66064,110.48193 281.10107,111.45801 278.54199,111.45801 Z" id="Path"></path>
            <path d="M62.7207,327.2793 C60.16162,327.2793 57.60205,326.30323 55.64941,324.35059 C51.74462,320.44532 51.74462,314.11329 55.64941,310.20801 L94.38671,271.47071 C98.29198,267.56544 104.62401,267.56544 108.52929,271.47071 C112.43408,275.37598 112.43408,281.70801 108.52929,285.61329 L69.79199,324.35059 C67.83936,326.30322 65.27979,327.2793 62.7207,327.2793 Z" id="Path"></path>
            <path d="M101.45801,111.45801 C98.89893,111.45801 96.33936,110.48194 94.38672,108.5293 L55.64942,69.792 C51.74463,65.88673 51.74463,59.5547 55.64942,55.64942 C59.55469,51.74415 65.88672,51.74415 69.792,55.64942 L108.5293,94.38672 C112.43409,98.29199 112.43409,104.62402 108.5293,108.5293 C106.57666,110.48193 104.01709,111.45801 101.45801,111.45801 Z" id="Path"></path>
            <path d="M317.2793,327.2793 C314.72022,327.2793 312.16065,326.30323 310.20801,324.35059 L271.47071,285.61329 C267.56592,281.70802 267.56592,275.37599 271.47071,271.47071 C275.37598,267.56544 281.70801,267.56544 285.61329,271.47071 L324.35059,310.20801 C328.25538,314.11328 328.25538,320.44531 324.35059,324.35059 C322.39795,326.30322 319.83838,327.2793 317.2793,327.2793 Z" id="Path"></path>
        </g>
    </g>
</svg>