<?xml version="1.0" encoding="UTF-8"?>
<svg width="460px" height="460px" viewBox="0 0 460 460" version="1.1" xmlns="http://www.w3.org/2000/svg" xmlns:xlink="http://www.w3.org/1999/xlink">
    <!-- Generator: Sketch 62 (91390) - https://sketch.com -->
    <title>vector_snow</title>
    <desc>Created with Sketch.</desc>
    <g id="Page-1" stroke="none" stroke-width="1" fill="none" fill-rule="evenodd">
        <g id="Group-8" transform="translate(50.000000, 48.000000)" fill="#010202" fill-rule="nonzero">
            <path d="M294.232832,217.471017 L284.205903,217.467313 L284.205903,217.467313 L66.0474947,217.384977 C29.6288621,217.384977 0,187.674243 0,151.153844 C0,119.628862 21.7765232,93.2755547 51.4220305,86.5736621 C50.9404832,83.9221389 50.6980895,81.2160379 50.6980895,78.4664432 C50.6980895,53.5952463 70.9318989,33.3609726 95.8030958,33.3609726 C104.064812,33.3609726 111.981913,35.5647126 118.889649,39.6960347 C137.820363,14.6620137 167.029191,0 198.905277,0 C248.722143,0 290.714438,36.6901768 298.169413,85.0415779 C332.65584,87.3609632 360,116.147454 360,151.199631 C360,187.385589 330.539987,217.114825 294.329975,217.471017 C294.297594,217.471017 294.265213,217.471017 294.232832,217.471017 Z M284.213302,198.519944 L294.190276,198.523648 C320.034742,198.244251 341.052632,177.024212 341.052632,151.19964 C341.052632,125.084558 319.796053,103.838154 293.668484,103.838154 C292.551812,103.838154 291.358345,103.910779 290.338816,103.981557 C287.835319,104.154101 285.342925,103.321449 283.444494,101.661243 C281.546981,100.001037 280.388672,97.6529653 280.227695,95.1369821 C277.486437,52.4138116 241.765835,18.9473779 198.905277,18.9473779 C170.163654,18.9473779 144.092984,33.6412989 129.165916,58.2529926 C127.655119,60.7444579 125.081318,62.4018884 122.187865,62.7474411 C119.29626,63.0906726 116.403272,62.0873337 114.348486,60.0209811 C109.402096,55.0472968 102.815848,52.3083505 95.8031053,52.3083505 C81.3797905,52.3083505 69.6454674,64.0426737 69.6454674,78.4664526 C69.6454674,82.5815842 70.5794211,86.5255642 72.4214274,90.1892084 C73.8679263,93.0664705 73.7536642,96.4817147 72.1179758,99.2562821 C70.4822874,102.030385 67.5490547,103.783576 64.3308632,103.910788 C38.8823684,104.91552 18.9473779,125.667417 18.9473779,151.153854 C18.9473779,177.22638 40.07628,198.437618 66.0475042,198.437618 L75.7894737,198.437618 L284.213302,198.519944 Z" id="Shape"></path>
            <path d="M89.0549432,345.330597 C86.6286947,345.330597 84.20292,344.404506 82.3525863,342.552325 C78.6547042,338.850739 78.6579442,332.852902 82.3595211,329.15502 L141.004772,270.56898 C144.706358,266.872026 150.704659,266.873874 154.402541,270.57546 C158.100423,274.277046 158.097183,280.274883 154.395606,283.972765 L95.7503558,342.558805 C93.90096,344.406354 91.4779516,345.330597 89.0549432,345.330597 Z" id="Path"></path>
            <path d="M147.670588,345.360202 C145.24434,345.360202 142.818565,344.434112 140.968232,342.581931 L82.3821916,283.93668 C78.6843095,280.235094 78.6875495,274.237257 82.3891263,270.539375 C86.0911674,266.842421 92.0894779,266.844268 95.7868958,270.545855 L154.372936,329.191105 C158.070818,332.892692 158.067578,338.890528 154.366001,342.588411 C152.516605,344.435968 150.093597,345.360202 147.670588,345.360202 Z" id="Path"></path>
            <path d="M165.745989,315.911293 C165.744142,315.911293 165.743214,315.911293 165.741366,315.911293 L71.0045242,315.939051 C65.7722558,315.936275 61.5326874,311.678668 61.5354618,306.446864 C61.5382389,301.215988 65.7791905,296.963924 71.0091474,296.963924 C71.0105305,296.963924 71.0123874,296.963924 71.0137705,296.963924 L165.750613,297.062451 C170.982881,297.065226 175.222449,301.259691 175.219675,306.491495 C175.216898,311.721452 170.975482,315.911293 165.745989,315.911293 Z" id="Path"></path>
            <path d="M118.353515,363.279714 C118.351667,363.279714 118.350739,363.279714 118.348892,363.279714 C113.116623,363.279714 108.877055,359.096116 108.879829,353.864312 L108.927938,259.096017 C108.930714,253.865141 113.172129,249.595503 118.401622,249.595503 C118.403469,249.595503 118.404398,249.595503 118.406245,249.595503 C123.638514,249.595503 127.878082,253.904921 127.875308,259.136725 L127.827199,353.842115 C127.824423,359.072991 123.583007,363.279714 118.353515,363.279714 Z" id="Path"></path>
            <path d="M220.462996,303.343863 C217.199018,303.343863 214.023846,301.656363 212.265114,298.632003 C209.633949,294.109797 211.166943,288.310869 215.690068,285.679696 L273.011409,252.333066 C277.534535,249.698198 283.333472,251.234896 285.963717,255.758021 C288.594881,260.280227 287.061887,266.079155 282.538762,268.710328 L225.217421,302.056958 C223.718646,302.929389 222.080182,303.343863 220.462996,303.343863 Z" id="Path"></path>
            <path d="M278.248765,302.487158 C276.722242,302.487158 275.174441,302.117097 273.737662,301.338104 L215.452298,269.704885 C210.854226,267.208787 209.149153,261.457967 211.645251,256.858977 C214.14042,252.260905 219.890312,250.55676 224.491159,253.051929 L282.776523,284.685148 C287.374595,287.181246 289.079668,292.932066 286.583571,297.531057 C284.867394,300.693259 281.610815,302.487158 278.248765,302.487158 Z" id="Path"></path>
            <path d="M249.097756,319.700766 C249.095908,319.700766 249.09498,319.700766 249.093133,319.700766 C243.8604,319.700766 239.621296,315.238699 239.62407,310.006895 L239.657381,244.829984 C239.660157,239.599108 243.901108,235.384977 249.131065,235.384977 C249.132913,235.384977 249.133841,235.384977 249.135688,235.384977 C254.368421,235.384977 258.607525,239.499644 258.604751,244.731448 L258.57144,310.082059 C258.568664,315.312944 254.327713,319.700766 249.097756,319.700766 Z" id="Path"></path>
        </g>
    </g>
</svg>