<?xml version="1.0" encoding="UTF-8"?>
<svg width="460px" height="460px" viewBox="0 0 460 460" version="1.1" xmlns="http://www.w3.org/2000/svg" xmlns:xlink="http://www.w3.org/1999/xlink">
    <!-- Generator: Sketch 62 (91390) - https://sketch.com -->
    <title>vector_rain</title>
    <desc>Created with Sketch.</desc>
    <g id="Page-1" stroke="none" stroke-width="1" fill="none" fill-rule="evenodd">
        <g id="Group-7" transform="translate(50.000000, 25.000000)" fill="#010202" fill-rule="nonzero">
            <path d="M261.129617,201.771004 C258.947393,201.771004 256.769393,200.909884 255.14882,199.201637 C252.01695,195.899491 252.154184,190.683655 255.45633,187.55136 C268.026168,175.627457 274.948985,159.522931 274.948985,142.204459 C274.948985,107.746673 246.915473,79.7135855 212.458112,79.7135855 C182.193241,79.7135855 156.331796,101.290207 150.964326,131.017992 C150.155306,135.495967 145.866249,138.470695 141.390815,137.663367 C136.911149,136.854772 133.935996,132.568248 134.745016,128.089431 C141.529749,90.5082505 174.213204,63.2316577 212.45812,63.2316577 C256.003582,63.2316577 291.430921,98.6585724 291.430921,142.204459 C291.430921,164.090281 282.683373,184.441515 266.799522,199.508721 C265.206049,201.02086 263.165292,201.771004 261.129617,201.771004 Z" id="Path"></path>
            <path d="M188.033413,56.3198573 C184.242466,56.3198573 180.830195,53.6890727 179.989833,49.8337416 L171.299043,9.99959413 C170.328223,5.55296087 173.14665,1.16181967 177.593283,0.191424487 C182.048383,-0.779820815 186.432324,2.04030641 187.401453,6.48651461 L196.092243,46.3206621 C197.063063,50.7672953 194.244636,55.1584365 189.798003,56.1288317 C189.205859,56.2580153 188.614557,56.3198573 188.033413,56.3198573 Z" id="Path"></path>
            <path d="M309.159828,133.331526 C305.368881,133.331526 301.95661,130.700741 301.116249,126.84541 C300.145428,122.398777 302.963855,118.007636 307.410489,117.03724 L349.786904,107.791998 C354.242854,106.820753 358.625945,109.64088 359.595074,114.087088 C360.565894,118.533721 357.747467,122.924863 353.300834,123.895258 L310.924418,133.1405 C310.332266,133.269684 309.740964,133.331526 309.159828,133.331526 Z" id="Path"></path>
            <path d="M264.807889,70.2252086 C263.283883,70.2252086 261.742094,69.803332 260.363798,68.9189204 C256.533883,66.4605281 255.421587,61.3624423 257.879988,57.5321117 L281.135633,21.2987276 C283.594025,17.4683883 288.691261,16.3565175 292.522867,18.8144934 C296.352781,21.2728857 297.465077,26.3709715 295.006676,30.2013021 L271.751031,66.4346862 C270.177051,68.8871536 267.520424,70.2252086 264.807889,70.2252086 Z" id="Path"></path>
            <path d="M128.834527,99.8903103 C127.310521,99.8903103 125.768733,99.4684336 124.391286,98.5840221 L88.1574766,75.3287941 C84.3267123,72.8704018 83.2144251,67.7723161 85.6728173,63.9419855 C88.1312096,60.1116548 93.2292954,58.9997753 97.0592096,61.4577512 L133.293019,84.7129792 C137.123783,87.1713715 138.23607,92.2694573 135.777678,96.0997879 C134.203689,98.5522553 131.547062,99.8903103 128.834527,99.8903103 Z" id="Path"></path>
            <path d="M329.858813,229.639316 C328.334808,229.639316 326.793019,229.217439 325.414722,228.333027 L289.181763,205.077799 C285.351849,202.619407 284.239553,197.521321 286.697954,193.690991 C289.156355,189.86066 294.253582,188.747514 298.085187,191.206757 L334.318147,214.461984 C338.148061,216.920377 339.260357,222.018463 336.801956,225.848793 C335.227975,228.301261 332.571348,229.639316 329.858813,229.639316 Z" id="Path"></path>
            <path d="M55.1732877,323.268888 C24.7262834,323.068537 0,298.216037 0,267.868141 C0,241.622518 18.0177918,219.663412 42.600908,213.929132 C42.2391817,211.821875 42.0578892,209.674375 42.0578892,207.493417 C42.0578892,186.650839 59.0142188,169.694093 79.8572125,169.694093 C86.663121,169.694093 93.1920202,171.479858 98.9110496,174.830296 C114.693241,154.134277 138.938348,142.022316 165.388554,142.022316 C206.805158,142.022316 241.731837,172.452804 248.066735,212.607594 C276.728825,214.695369 299.410109,238.682516 299.410109,267.868132 C299.410109,298.115636 274.801585,322.966444 244.554497,323.264637 L55.1732877,323.268888 Z M79.8572125,186.17603 C68.1031692,186.17603 58.5398169,195.738957 58.5398169,207.493425 C58.5398169,210.847246 59.3005446,214.061291 60.8016752,217.045761 C62.0605214,219.549053 61.9614043,222.519973 60.5382159,224.933465 C59.1158689,227.346966 56.564293,228.872238 53.7644993,228.982788 C32.8579634,229.808325 16.4819277,246.888755 16.4819277,267.868141 C16.4819277,289.187228 33.8635171,306.646334 55.2275046,306.78696 L244.473172,306.783152 C265.640626,306.574334 282.928181,289.116928 282.928181,267.868149 C282.928181,246.404203 265.465267,228.941705 244.00132,228.941705 C243.198234,228.941705 242.329073,228.976013 241.264219,229.049714 C239.069286,229.205589 236.917553,228.474503 235.268172,227.030981 C233.617099,225.587034 232.610695,223.544585 232.470069,221.356002 C230.209053,186.112071 200.743885,158.504252 165.388554,158.504252 C141.679692,158.504252 120.173378,170.624264 107.861066,190.925089 C106.546311,193.092072 104.30817,194.533903 101.791319,194.834212 C99.2727759,195.133255 96.7584665,194.259426 94.9718516,192.46307 C90.9394786,188.408663 85.5711586,186.17603 79.8572125,186.17603 Z" id="Shape"></path>
            <path d="M127.469789,409.375015 C125.359564,409.375015 123.249348,408.569387 121.639784,406.958556 C118.423197,403.738586 118.425739,398.520633 121.645718,395.304046 L141.32644,375.643232 C144.546411,372.42707 149.763938,372.429186 152.980525,375.64874 C156.197112,378.86871 156.194571,384.086663 152.974592,387.30325 L133.293869,406.964064 C131.685146,408.571504 129.577472,409.375015 127.469789,409.375015 Z" id="Path"></path>
            <path d="M59.0955441,364.578324 C56.9853195,364.578324 54.8751036,363.772696 53.2655393,362.16144 C50.0489523,358.94147 50.051494,353.723942 53.2714728,350.50693 L65.6829022,338.108209 C68.9020308,334.892472 74.1195586,334.894589 77.336987,338.114559 C80.553574,341.334529 80.5510323,346.552057 77.3310535,349.769069 L64.9196241,362.16779 C63.3109012,363.774812 61.2032183,364.578324 59.0955441,364.578324 Z" id="Path"></path>
            <path d="M168.337449,364.578324 C166.227224,364.578324 164.117008,363.773121 162.507444,362.161865 C159.290857,358.941895 159.293399,353.723942 162.513377,350.507355 L174.923957,338.108634 C178.143927,334.892897 183.361454,334.894164 186.578041,338.114143 C189.794628,341.334121 189.792087,346.552065 186.572108,349.768652 L174.161529,362.167373 C172.552806,363.774387 170.445123,364.578324 168.337449,364.578324 Z" id="Path"></path>
            <path d="M203.703788,384.354356 C201.592722,384.354356 199.482497,383.548303 197.872933,381.937047 C194.656346,378.716651 194.659738,373.498699 197.880558,370.282537 L230.096394,338.107793 C233.316364,334.891206 238.533892,334.895023 241.750479,338.114993 C244.967066,341.335388 244.963674,346.553341 241.742854,349.769503 L209.527018,381.944247 C207.918304,383.551261 205.811471,384.354356 203.703788,384.354356 Z" id="Path"></path>
            <path d="M85.0306901,392.999404 C82.9204655,392.999404 80.8102496,392.193776 79.2006853,390.582945 C75.9840983,387.362975 75.98664,382.145023 79.2066188,378.928436 L120.067504,338.108643 C123.287474,334.892056 128.505001,334.895023 131.721588,338.114151 C134.938175,341.334121 134.935634,346.552074 131.715655,349.768661 L90.8547701,390.588454 C89.2460472,392.195893 87.1383643,392.999404 85.0306901,392.999404 Z" id="Path"></path>
        </g>
    </g>
</svg>