<?xml version="1.0" encoding="UTF-8"?>
<svg width="460px" height="460px" viewBox="0 0 460 460" version="1.1" xmlns="http://www.w3.org/2000/svg" xmlns:xlink="http://www.w3.org/1999/xlink">
    <!-- Generator: Sketch 62 (91390) - https://sketch.com -->
    <title>Group 5</title>
    <desc>Created with Sketch.</desc>
    <g id="Page-1" stroke="none" stroke-width="1" fill="none" fill-rule="evenodd">
        <g id="Group-5" transform="translate(40.000000, 61.000000)" fill="#010202" fill-rule="nonzero">
            <path d="M310.57959,229.55274 L299.99561,229.54883 L299.99561,229.54883 L69.7168,229.46192 C31.2749,229.46192 0,198.10059 0,159.55128 C0,126.27491 22.98633,98.45753 54.27881,91.38331 C53.77051,88.58448 53.51465,85.72804 53.51465,82.82569 C53.51465,56.57276 74.87256,35.21436 101.12549,35.21436 C109.84619,35.21436 118.20313,37.54053 125.49463,41.90137 C145.47705,15.47657 176.30859,0 209.95557,0 C262.54053,0 306.86524,38.72852 314.73389,89.76611 C351.13575,92.21435 380,122.60009 380,159.59961 C380,197.7959 348.90381,229.17676 310.68164,229.55274 C310.64795,229.55274 310.61377,229.55274 310.57959,229.55274 Z M300.00342,209.54883 L310.53516,209.55274 C337.81494,209.25782 360,186.85938 360,159.59962 C360,132.0337 337.5625,109.60694 309.9834,109.60694 C308.80469,109.60694 307.54492,109.6836 306.46778,109.75831 C303.81641,109.94483 301.19434,109.06153 299.19092,107.30909 C297.18799,105.55665 295.96582,103.07813 295.79541,100.42237 C292.90283,55.32569 255.19727,20.00001 209.95557,20.00001 C179.61719,20.00001 152.09815,35.51026 136.3418,61.48927 C134.74707,64.11915 132.03028,65.86866 128.97608,66.23341 C125.9209,66.59327 122.87012,65.53663 120.70118,63.35548 C115.47999,58.10548 108.52784,55.21437 101.1255,55.21437 C85.90089,55.21437 73.51466,67.6006 73.51466,82.8257 C73.51466,87.16945 74.5005,91.33254 76.44484,95.19972 C77.9717,98.23683 77.85109,101.84181 76.12453,104.77052 C74.39797,107.69874 71.30178,109.54933 67.9048,109.68361 C41.04248,110.74415 20,132.64893 20,159.55128 C20,187.07228 42.30273,209.46192 69.7168,209.46192 L80,209.46192 L300.00342,209.54883 Z" id="Shape"></path>
            <path d="M154.958006,336.40137 C152.39697,336.40137 149.83643,335.42383 147.8833,333.46875 C143.97998,329.56152 143.9834,323.22949 147.89062,319.32715 L172.93261,294.31055 C176.84032,290.40723 183.17187,290.41016 187.0747,294.31739 C190.97802,298.22462 190.9746,304.55665 187.06738,308.45899 L162.02539,333.47559 C160.07324,335.42579 157.51514,336.40137 154.958006,336.40137 Z" id="Path"></path>
            <path d="M67.9580061,279.40137 C65.39697,279.40137 62.83643,278.42383 60.8833,276.46875 C56.97998,272.56152 56.9834,266.23047 60.89062,262.32715 L76.68261,246.55078 C80.58984,242.64746 86.92138,242.65039 90.8247,246.55762 C94.72802,250.46485 94.7246,256.7959 90.81738,260.69922 L75.02539,276.47559 C73.07324,278.42579 70.51562,279.40137 67.9580061,279.40137 Z" id="Path"></path>
            <path d="M206.958006,279.40137 C204.39697,279.40137 201.83643,278.42383 199.8833,276.46875 C195.97998,272.56152 195.9834,266.23047 199.89062,262.32715 L215.68261,246.55078 C219.58984,242.64746 225.92138,242.65039 229.8247,246.55762 C233.72802,250.46485 233.7246,256.7959 229.81738,260.69922 L214.02539,276.47559 C212.07324,278.42579 209.51562,279.40137 206.958006,279.40137 Z" id="Path"></path>
            <path d="M251.958012,304.56446 C249.39649,304.56446 246.83545,303.58692 244.88233,301.63087 C240.9795,297.72364 240.98389,291.39161 244.89161,287.48927 L285.8838,246.54982 C289.79151,242.6465 296.12306,242.65041 300.02589,246.55861 C303.92872,250.46584 303.92433,256.79787 300.01661,260.70021 L259.02442,301.63966 C257.07227,303.58985 254.51514,304.56446 251.958012,304.56446 Z" id="Path"></path>
            <path d="M100.958006,315.56446 C98.39697,315.56446 95.83643,314.58692 93.8833,312.63184 C89.97998,308.72461 89.9834,302.39356 93.89062,298.49024 L145.88281,246.55079 C149.79004,242.64747 156.12158,242.6504 160.0249,246.55763 C163.92822,250.46486 163.9248,256.79591 160.01758,260.69923 L108.02539,312.63868 C106.07324,314.58887 103.51514,315.56446 100.958006,315.56446 Z" id="Path"></path>
        </g>
    </g>
</svg>