<svg width="24" height="24" viewBox="0 0 24 24" fill="none" xmlns="http://www.w3.org/2000/svg">
<g clip-path="url(#clip0)">
<path d="M12.799 17.7626C12.799 17.6832 12.799 17.6832 12.799 17.6037V5.60156C12.799 5.12047 12.4811 4.80254 12 4.80254C11.5189 4.80254 11.201 5.20414 11.201 5.60156V17.6037C11.201 17.6831 11.201 17.6831 11.201 17.7626C10.2388 18.0848 9.60294 18.9633 9.60294 20.0007C9.60294 21.3603 10.6446 22.402 12.0042 22.402C13.3638 22.402 14.4054 21.3603 14.4054 20.0007C14.4013 18.9633 13.7612 18.0848 12.799 17.7626Z" fill="white"/>
<path d="M14.4013 16.8046V2.40126C14.4013 1.04166 13.3596 0 12 0C10.6404 0 9.59878 1.12115 9.59878 2.40126V16.8004C8.6366 17.52 8.00073 18.7206 8.00073 20.0007C8.00073 22.2388 9.76193 24 12 24C14.2381 24 15.9993 22.2388 15.9993 20.0007C15.9993 18.7206 15.3593 17.5242 14.4013 16.8046ZM12 23.2052C10.2388 23.2052 8.79976 21.7662 8.79976 20.0049C8.79976 18.8043 9.43981 17.7668 10.3978 17.2063V2.40126C10.3978 1.52275 11.1173 0.803209 11.9958 0.803209C12.8744 0.803209 13.5939 1.52275 13.5939 2.40126V17.202C14.556 17.7626 15.1919 18.8001 15.1919 20.0007C15.2003 21.7619 13.7612 23.2052 12 23.2052Z" fill="white"/>
</g>
<defs>
<clipPath id="clip0">
<rect width="24" height="24" fill="white"/>
</clipPath>
</defs>
</svg>
